# xmcd
#
# Track frame offsets:
#	150
#	52050
#	91257
#	101480
#	123352
#	140342
#	180062
#	230122
#
# Disc length: 3240 seconds
#
# Revision: 1
# Processed by: cddbd v1.5.2PL0 Copyright (c) Steve Scherf et al.
# Submitted via: audiograbber 1.83.01
#
DISCID=620ca608
DTITLE=Barthel and Bauer - Five Live Years
DYEAR=1990
DGENRE=
TTITLE0=Interrail
TTITLE1=Ruhe vor dem Sturm
TTITLE2=Anamur
TTITLE3=Eastern Trip
TTITLE4=Sightseeing
TTITLE5=Funk it all
TTITLE6=Oriental Living Pt. I and II
TTITLE7=Les Cascades
EXTD=
EXTT0=
EXTT1=
EXTT2=
EXTT3=
EXTT4=
EXTT5=
EXTT6=
EXTT7=
PLAYORDER=
